<svg width="107" height="37" viewBox="0 0 107 37" fill="none" xmlns="http://www.w3.org/2000/svg">
<g id="Group 116">
<rect id="Rectangle 20" x="0.995605" y="1.20398" width="104.967" height="34.7408" fill="white" stroke="#C9C9C9" stroke-width="0.5"/>
<path id="0" d="M53.479 28.2991C52.0862 28.2991 50.8999 27.9201 49.92 27.1621C48.9401 26.3979 48.1914 25.2917 47.6737 23.8435C47.156 22.3891 46.8972 20.6328 46.8972 18.5744C46.8972 16.5284 47.156 14.7813 47.6737 13.3331C48.1975 11.8787 48.9494 10.7694 49.9293 10.0052C50.9153 9.2349 52.0985 8.84973 53.479 8.84973C54.8594 8.84973 56.0395 9.2349 57.0194 10.0052C58.0054 10.7694 58.7573 11.8787 59.275 13.3331C59.7988 14.7813 60.0607 16.5284 60.0607 18.5744C60.0607 20.6328 59.8019 22.3891 59.2842 23.8435C58.7665 25.2917 58.0178 26.3979 57.0379 27.1621C56.058 27.9201 54.8717 28.2991 53.479 28.2991ZM53.479 26.2655C54.8594 26.2655 55.9317 25.5999 56.6959 24.2687C57.46 22.9376 57.8421 21.0395 57.8421 18.5744C57.8421 16.9352 57.6665 15.5393 57.3152 14.3869C56.9701 13.2345 56.4709 12.3563 55.8177 11.7524C55.1706 11.1484 54.391 10.8464 53.479 10.8464C52.1108 10.8464 51.0416 11.5213 50.2713 12.8709C49.5009 14.2143 49.1158 16.1155 49.1158 18.5744C49.1158 20.2137 49.2883 21.6065 49.6334 22.7527C49.9786 23.899 50.4747 24.771 51.1217 25.3688C51.775 25.9666 52.5607 26.2655 53.479 26.2655Z" fill="#747474"/>
</g>
</svg>
